<svg xmlns="http://www.w3.org/2000/svg" xmlns:xlink="http://www.w3.org/1999/xlink" width="1000" zoomAndPan="magnify" viewBox="0 0 750 749.999995" height="1000" preserveAspectRatio="xMidYMid meet" version="1.0"><rect x="-75" width="900" fill="#ffffff" y="-74.999999" height="899.999994" fill-opacity="1"/><rect x="-75" width="900" fill="#ffffff" y="-74.999999" height="899.999994" fill-opacity="1"/><path stroke-linecap="round" transform="matrix(21.718748, 0, 0, 21.718748, 114.430149, 114.430166)" fill="none" stroke-linejoin="round" d="M 5.999979 16.326058 C 5.868864 16.263828 5.739907 16.197461 5.612929 16.127317 C 5.48595 16.056994 5.36131 15.982893 5.239008 15.904835 C 5.116526 15.826778 4.996742 15.744943 4.879476 15.659512 C 4.762209 15.57408 4.647821 15.485051 4.53595 15.392425 C 4.42426 15.299799 4.315627 15.203936 4.209871 15.104476 C 4.103936 15.005195 4.001418 14.902677 3.902137 14.796922 C 3.802677 14.691166 3.706634 14.582533 3.614008 14.470663 C 3.521382 14.358972 3.432353 14.244583 3.346921 14.127317 C 3.26131 14.010051 3.179655 13.890267 3.101598 13.767965 C 3.02354 13.645662 2.94926 13.521022 2.878936 13.394044 C 2.808612 13.267065 2.742425 13.138108 2.680015 13.006993 C 2.617785 12.875878 2.559691 12.743144 2.505734 12.608432 C 2.451598 12.47372 2.401777 12.337569 2.356274 12.199619 C 2.31077 12.061849 2.269583 11.922821 2.232713 11.782533 C 2.195842 11.642245 2.163288 11.500878 2.135231 11.358432 C 2.106993 11.216166 2.083432 11.073 2.064188 10.929115 C 2.044943 10.78541 2.030195 10.640986 2.019943 10.496382 C 2.009871 10.351597 2.004116 10.206633 2.002857 10.06149 C 2.001598 9.916346 2.004835 9.771382 2.012749 9.626418 C 2.020483 9.481633 2.032713 9.337029 2.049619 9.192964 C 2.066346 9.04872 2.087569 8.905374 2.113288 8.762569 C 2.139008 8.619763 2.169224 8.477856 2.203756 8.336849 C 2.238288 8.195842 2.277137 8.056274 2.320303 7.917604 C 2.363468 7.779115 2.41095 7.642065 2.462749 7.506453 C 2.514547 7.371022 2.570483 7.237029 2.630554 7.105014 C 2.690626 6.973 2.754655 6.842784 2.822821 6.714727 C 2.890986 6.586669 2.963108 6.46077 3.039008 6.337209 C 3.115087 6.213468 3.194763 6.092424 3.278396 5.973719 C 3.36185 5.855014 3.4489 5.739007 3.539727 5.625878 C 3.630375 5.512568 3.724619 5.402317 3.822281 5.294942 C 3.919763 5.187388 4.020663 5.083252 4.124799 4.982173 C 4.228756 4.880914 4.33595 4.783252 4.446022 4.688647 C 4.556274 4.594223 4.669224 4.503396 4.785051 4.415985 C 4.900878 4.328396 5.019224 4.244762 5.140267 4.164726 C 5.26131 4.084511 5.384691 4.008431 5.510411 3.935949 C 5.63631 3.863647 5.764188 3.795122 5.894224 3.730734 C 6.02408 3.666345 6.156094 3.605913 6.289907 3.549619 C 6.42354 3.493503 6.558972 3.441525 6.696022 3.393683 C 6.833073 3.345842 6.971382 3.302316 7.11113 3.263108 C 7.250699 3.223899 7.391526 3.189007 7.533433 3.158611 C 7.675339 3.128216 7.817965 3.102136 7.96149 3.080554 C 8.105015 3.058971 8.24908 3.041885 8.393684 3.029295 C 8.538109 3.016525 8.683073 3.008431 8.828037 3.004834 C 8.973181 3.001237 9.118145 3.002136 9.263109 3.007532 C 9.408253 3.012928 9.552857 3.02282 9.697282 3.037208 C 9.841706 3.051597 9.985411 3.070482 10.128757 3.093863 C 10.271922 3.117244 10.414368 3.144942 10.555735 3.177136 C 10.697282 3.209331 10.83757 3.245842 10.976778 3.286849 C 11.115987 3.327856 11.253936 3.373 11.390267 3.42246 C 11.526778 3.471921 11.66149 3.525698 11.794584 3.583611 C 11.927498 3.641345 12.058793 3.703396 12.187929 3.769403 C 12.317246 3.83541 12.444224 3.905374 12.569044 3.979295 C 12.693865 4.053216 12.816347 4.131093 12.936491 4.212568 C 13.056455 4.294223 13.173901 4.379295 13.288469 4.468144 C 13.403217 4.556993 13.515088 4.649439 13.624081 4.745122 C 13.733073 4.840986 13.839009 4.940086 13.941886 5.042424 C 14.044764 5.144942 14.144224 5.250338 14.240447 5.358971 C 14.336671 5.467424 14.429476 5.578935 14.518865 5.693324 C 14.608253 5.807712 14.693865 5.924619 14.776059 6.044403 C 14.858073 6.164007 14.936311 6.28613 15.010771 6.41077 C 15.085232 6.53523 15.155735 6.662029 15.222282 6.790986 C 15.288829 6.919943 15.351419 7.050698 15.409872 7.183612 C 15.468325 7.316345 15.522462 7.450878 15.572642 7.587209 C 15.622642 7.72336 15.668505 7.86095 15.710052 7.999979 L 17.49998 7.999979 C 17.571203 7.999799 17.642246 8.001417 17.713289 8.004655 C 17.784333 8.007892 17.855196 8.012928 17.926059 8.019403 C 17.996743 8.026058 18.067426 8.034331 18.13793 8.044223 C 18.208254 8.054295 18.278397 8.065806 18.348361 8.079115 C 18.418146 8.092425 18.48757 8.107353 18.556815 8.123899 C 18.626059 8.140446 18.694764 8.158792 18.76293 8.178576 C 18.831275 8.19836 18.899081 8.219943 18.966347 8.242964 C 19.033613 8.265986 19.10034 8.290626 19.166347 8.316885 C 19.232534 8.342964 19.298002 8.370842 19.36275 8.400158 C 19.427498 8.429475 19.491707 8.46023 19.555016 8.492605 C 19.618326 8.524979 19.680916 8.558792 19.742606 8.594043 C 19.804297 8.629475 19.865088 8.666166 19.92516 8.704295 C 19.985052 8.742605 20.044225 8.782173 20.102318 8.82318 C 20.160412 8.864187 20.217426 8.906453 20.273541 8.950159 C 20.329657 8.994043 20.384693 9.039007 20.438649 9.08523 C 20.492606 9.131633 20.545484 9.179115 20.597283 9.228036 C 20.648901 9.276777 20.699441 9.326777 20.748721 9.378036 C 20.798182 9.429295 20.846203 9.481633 20.892966 9.535051 C 20.939908 9.588648 20.985412 9.643144 21.029657 9.6989 C 21.074081 9.754475 21.116887 9.81113 21.158434 9.868864 C 21.20016 9.926597 21.240268 9.985231 21.279117 10.044763 C 21.317966 10.104475 21.355196 10.164907 21.391167 10.226238 C 21.427139 10.287749 21.461491 10.349799 21.494585 10.412928 C 21.527498 10.475878 21.558973 10.539547 21.589009 10.604115 C 21.618865 10.668684 21.647283 10.733792 21.674261 10.799619 C 21.70106 10.865446 21.726419 10.931993 21.75016 10.9989 C 21.773901 11.065986 21.796024 11.133612 21.816527 11.201598 C 21.837031 11.269763 21.855916 11.338288 21.873182 11.407353 C 21.890448 11.476238 21.906096 11.545662 21.920124 11.615446 C 21.933973 11.685051 21.946383 11.755195 21.956995 11.825518 C 21.967606 11.895662 21.976599 11.966346 21.983973 12.037029 C 21.991347 12.107713 21.996923 12.178576 22.00088 12.249619 C 22.004837 12.320662 22.007175 12.391706 22.007714 12.462749 C 22.008254 12.533972 22.007175 12.605015 22.004477 12.676058 C 22.001599 12.747101 21.997103 12.818144 21.990988 12.889008 C 21.984873 12.959871 21.976959 13.030375 21.967606 13.100878 C 21.958074 13.171382 21.946923 13.241706 21.933973 13.31167 C 21.921203 13.381454 21.906815 13.451058 21.890628 13.520483 C 21.874441 13.589727 21.856815 13.658432 21.837391 13.726957 C 21.817966 13.795303 21.796923 13.863288 21.774441 13.930734 C 21.751779 13.99818 21.727498 14.064907 21.701779 14.131274 C 21.67606 14.197461 21.648721 14.263109 21.619765 14.328216 C 21.590808 14.393145 21.560412 14.457353 21.528578 14.521022 C 21.496563 14.584511 21.46311 14.647281 21.428218 14.709152 C 21.393326 14.771202 21.356995 14.832173 21.319225 14.892425 C 21.281275 14.952677 21.242067 15.012029 21.201419 15.070483 C 21.160952 15.128756 21.118865 15.18613 21.07552 15.242605 C 21.032175 15.2989 20.98757 15.354296 20.941527 15.408432 C 20.895664 15.462749 20.848362 15.515986 20.79998 15.567965 C 20.751419 15.619943 20.701779 15.670842 20.65088 15.720483 C 20.59998 15.770123 20.547822 15.818684 20.494765 15.865807 C 20.441527 15.912929 20.387211 15.958972 20.331815 16.003576 C 20.276419 16.048181 20.220124 16.091526 20.16275 16.133432 C 20.105196 16.175339 20.046923 16.215986 19.98757 16.255195 C 19.928218 16.294404 19.867966 16.332173 19.806815 16.368504 C 19.745664 16.404835 19.683793 16.439548 19.620844 16.473001 C 19.558074 16.506454 19.494585 16.538289 19.430196 16.568684 C 19.365987 16.59908 19.301059 16.627857 19.235412 16.655195 C 19.169585 16.682533 19.103398 16.708253 19.036491 16.732353 C 18.969585 16.756634 18.902138 16.779116 18.834153 16.800159 C 18.766347 16.821022 18.697822 16.840447 18.628937 16.858073 C 18.560052 16.875879 18.490808 16.891886 18.421203 16.906274 C 18.351599 16.920843 18.281635 16.933612 18.211311 16.944584 C 18.141167 16.955735 18.070664 16.965267 17.99998 16.973001 " stroke="#000000" stroke-width="2" stroke-opacity="1" stroke-miterlimit="4"/><path stroke-linecap="round" transform="matrix(21.718748, 0, 0, 21.718748, 114.430149, 114.430166)" fill="none" stroke-linejoin="round" d="M 12.99998 11.999979 L 9.99998 16.999979 L 13.99998 16.999979 L 10.99998 21.99998 " stroke="#000000" stroke-width="2" stroke-opacity="1" stroke-miterlimit="4"/></svg>